<?xml version="1.0" encoding="UTF-8"?>
<!-- Generator: visioncortex VTracer 1.0.0-alpha.4 -->
<svg version="1.1" xmlns="http://www.w3.org/2000/svg" width="512" height="512">
<path d="M174.7,79.63C177,81,177,81,179.19,81.94c2.27,1.33,2.85,2.66,3.81,5.06c5.64-.61,10.97-1.98,16.45-3.43c38.93-10.22,79.15-11.55,117.87,.5c8.22,2.55,8.22,2.55,11.68,1.93c2.15-1.5,2.15-1.5,4.38-3.56C347.94,70.19,367.29,65.8,386,67.25c16.15,1.85,30.69,7.74,43.1,18.37c2.01,1.46,3.51,1.83,5.9,2.38c1.04,1.3,2.04,2.64,3,4c.7,.5,1.4,.99,2.13,1.5C442,95,442,95,442.44,97c.84,2.99,2.95,3.5,5.56,5c.33,.99,.66,1.98,1,3c.66,.33,1.32,.66,2,1c.33,.99,.66,1.98,1,3c.66,.33,1.32,.66,2,1c.33,.99,.66,1.98,1,3c.66,.66,1.32,1.32,2,2c2,2,2,2,3,5c1.48,3.76,1.48,3.76,3.88,4.88c3.08,1.63,4.22,4.24,6.12,7.12c2.32,2.09,4.35,3.7,7.19,5c1.81,1,1.81,1,2.65,2.77c1.46,2.81,3.35,4.68,5.6,6.92c.78,.79,1.56,1.57,2.37,2.38C490,151,490,151,493,152c.33,1.33,.67,2.67,1,4c.99,.33,1.98,.66,3,1c.33,.99,.66,1.98,1,3c.64,.78,1.28,1.57,1.94,2.38c3.8,4.83,5.17,10.84,7.06,16.62c.66,0,1.32,0,2,0c3.02,5.04,3.41,8.77,3.29,14.46c0,.79-.01,1.58-.01,2.4c-.02,2.5-.05,5.01-.09,7.52c-.02,1.7-.03,3.41-.04,5.12c-.04,4.16-.09,8.33-.15,12.5c-.66,.33-.66,.33-4,2c.1,.66,.21,1.32,.31,2c-.45,4.37-2.65,7.55-5.31,11c-.66,.33-1.32,.66-2,1c-.33,.99-.66,1.98-1,3c-1.31,.71-2.65,1.37-4,2c-1.45,1.12-2.87,2.29-4.25,3.5c-.71,.61-1.41,1.22-2.14,1.84C488,249,488,249,488,251c-.99,.33-1.98,.66-3,1c.14,.72,.29,1.43,.43,2.17c.86,4.28,1.71,8.55,2.57,12.83c.66,0,1.32,0,2,0c0,.66,0,1.32,0,2c.66,0,1.32,0,2,0c-.01,.37-.01,.37-.07,2.27c-.02,.98-.04,1.97-.05,2.98c-.02,.49-.02,.49-.08,2.95c.2,2.82,.75,4.41,2.2,6.8c.33,0,.66,0,1,0c-.01,.47-.01,.47-.04,2.84c-.08,10.22,.24,20.39,.77,30.6c.49,10.23,.49,10.23-.73,14.56c-.66,.33-1.32,.66-2,1c0,2.31,0,4.62,0,7c-.66,.33-1.32,.66-2,1c-2.65,5.78-4.44,11.67-5,18c-.66,0-1.32,0-2,0c-.16,1.07-.33,2.15-.5,3.25c-1.55,6.34-5.57,11.64-9.5,16.75c-.66,.33-1.32,.66-2,1c-.33,.99-.66,1.98-1,3c-.99,.33-1.98,.66-3,1c-.12,.62-.25,1.24-.37,1.88c-.63,2.12-.63,2.12-2.9,3.48c-2.88,1.73-4.71,3.55-6.98,6.02c-5.27,5.42-11.11,9.87-17.21,14.33c-.72,.53-1.43,1.06-2.17,1.6c-.33,.24-.33,.24-1.97,1.43c-.46,.41-.92,.83-1.4,1.26c0,.66,0,1.32,0,2c-.76,.1-1.53,.21-2.31,.31c-2.93,.75-3.71,1.52-5.69,3.69c-.99,.33-1.98,.66-3,1c-1.66,.83-3.33,1.67-4.98,2.53c-39.05,20.08-82.62,30.06-126.37,32.12c-.44,.05-.44,.05-2.65,.35c-.33,.66-.66,1.32-1,2c-73.89,1.36-166.25,1.92-225-50c-2.72-2.63-5.37-5.32-7.92-8.12c-3.16-3.36-5.76-4.49-10.08-5.88c-1.25-3.5-1.25-3.5-2-7c-1.23-1.23-2.48-2.42-3.77-3.57c-3.15-3.44-5.44-7.27-7.85-11.24c-.49-.78-.98-1.57-1.49-2.37C28.1,365.25,26.24,361.2,25,356c-1-2-1-2-3-5c-2.29-5.42-3.37-10.13-3-16c-.66,0-1.32,0-2,0c-1.25-4.81-1.13-9.52-1.1-14.46c0-.9,.01-1.8,.01-2.73c0-2.88,.01-5.75,.03-8.62c0-1.95,.01-3.91,.01-5.86c.01-4.78,.03-9.55,.05-14.33c.66-.33,1.32-.66,2-1c-.08-1.22-.16-2.43-.25-3.69c-.04-6.45,2.16-12.28,4.25-18.31c.66,0,1.32,0,2,0c.12-.68,.24-1.35,.37-2.05c.16-.89,.33-1.78,.51-2.7c.16-.88,.32-1.76,.49-2.67c.6-2.45,1.41-4.39,2.63-6.58c-.99-.33-1.98-.66-3-1c-1.67-1.33-3.33-2.67-5-4c-.99-.33-1.98-.66-3-1c-.67-1.33-1.33-2.67-2-4c-.99-.33-1.98-.66-3-1c-.33-.99-.66-1.98-1-3c-.58-.52-1.15-1.03-1.75-1.56c-2.87-3.11-4.35-6.48-6.1-10.3C2,224,2,224,0,223c-.82-28.8-.82-28.8,4-43c.14-.45,.14-.45,.86-2.75c.48-1.49,.98-2.97,1.5-4.44c.57-1.62,1.05-3.28,1.52-4.93C9.5,163.72,11.89,159.05,16,157c.29-.64,.58-1.28,.88-1.94C18,153,18,153,20,152.06c2.76-1.47,2.91-3.19,4-6.06c3.21-3.85,3.21-3.85,5.94-4.37c4-1.22,6.35-5.59,8.62-8.94C40,131,40,131,41.88,130.63c3.52-1.04,5-3.77,7.12-6.63c.33-.99,.66-1.98,1-3c.66-.33,1.32-.66,2-1c.33-.99,.66-1.98,1-3c.66-.33,1.32-.66,2-1c.31-.8,.62-1.61,.94-2.44C57,111,57,111,60,109c.68-1.33,1.35-2.66,2-4c.66-.33,1.32-.66,2-1c.33-.99,.66-1.98,1-3c.99-.33,1.98-.66,3-1c.1-.6,.21-1.2,.31-1.81C69.37,94.81,72.12,93.9,75,92c1.01-1.66,2.01-3.33,3-5c.28-.06,.28-.06,1.7-.38c3.29-.89,5.71-2.89,8.43-4.87c26.64-18.81,58.74-18.85,86.57-2.12ZM508,182c1,2,1,2,1,2Zm1,2c1,4,1,4,1,4Zm1,4c1,4,1,4,1,4Zm0,25c1,4,1,4,1,4ZM1,216c1,3,1,3,1,3Zm508,1c1,3,1,3,1,3ZM2,220c1,2,1,2,1,2Zm1,2c1,2,1,2,1,2Zm1,3c1,2,1,2,1,2Zm479,30c1,2,1,2,1,2ZM27,256c1,2,1,2,1,2Zm-5,13c1,2,1,2,1,2Zm467,1c1,2,1,2,1,2Zm1,3c1,3,1,3,1,3ZM20,275c1,3,1,3,1,3Zm-1,4c1,3,1,3,1,3Zm475,40c0,2.31,0,4.62,0,7c.33,0,.66,0,1,0c0-2.31,0-4.62,0-7c-.33,0-.66,0-1,0ZM17,323c0,1.98,0,3.96,0,6c.33,0,.66,0,1,0c0-1.98,0-3.96,0-6c-.33,0-.66,0-1,0Zm3,17c1,2,1,2,1,2Zm1,3c1,2,1,2,1,2Zm1,3c1,2,1,2,1,2Zm1,3c1,2,1,2,1,2Z" fill="#D4EBF6"/>
<path d="M174.7,79.63C177,81,177,81,179.19,81.94c2.27,1.33,2.85,2.66,3.81,5.06c5.64-.61,10.97-1.98,16.45-3.43c38.93-10.22,79.15-11.55,117.87,.5c8.22,2.55,8.22,2.55,11.68,1.93c2.15-1.5,2.15-1.5,4.38-3.56C347.94,70.19,367.29,65.8,386,67.25c16.15,1.85,30.69,7.74,43.1,18.37c2.01,1.46,3.51,1.83,5.9,2.38c1.04,1.3,2.04,2.64,3,4c.7,.5,1.4,.99,2.13,1.5C442,95,442,95,442.44,97c.84,2.99,2.95,3.5,5.56,5c.33,.99,.66,1.98,1,3c.66,.33,1.32,.66,2,1c.33,.99,.66,1.98,1,3c.66,.33,1.32,.66,2,1c.33,.99,.66,1.98,1,3c.66,.66,1.32,1.32,2,2c2,2,2,2,3,5c1.48,3.76,1.48,3.76,3.88,4.88c3.08,1.63,4.22,4.24,6.12,7.12c2.32,2.09,4.35,3.7,7.19,5c1.81,1,1.81,1,2.65,2.77c1.46,2.81,3.35,4.68,5.6,6.92c.78,.79,1.56,1.57,2.37,2.38C490,151,490,151,493,152c.33,1.33,.67,2.67,1,4c.99,.33,1.98,.66,3,1c.33,.99,.66,1.98,1,3c.64,.78,1.28,1.57,1.94,2.38c3.8,4.83,5.17,10.84,7.06,16.62c.66,0,1.32,0,2,0c3.02,5.04,3.41,8.77,3.29,14.46c0,.79-.01,1.58-.01,2.4c-.02,2.5-.05,5.01-.09,7.52c-.02,1.7-.03,3.41-.04,5.12c-.04,4.16-.09,8.33-.15,12.5c-.66,.33-.66,.33-4,2c.1,.66,.21,1.32,.31,2c-.45,4.37-2.65,7.55-5.31,11c-.66,.33-1.32,.66-2,1c-.33,.99-.66,1.98-1,3c-1.31,.71-2.65,1.37-4,2c-1.45,1.12-2.87,2.29-4.25,3.5c-.71,.61-1.41,1.22-2.14,1.84C488,249,488,249,488,251c-.99,.33-1.98,.66-3,1c.14,.72,.29,1.43,.43,2.17c.86,4.28,1.71,8.55,2.57,12.83c.66,0,1.32,0,2,0c0,.66,0,1.32,0,2c.66,0,1.32,0,2,0c-.01,.37-.01,.37-.07,2.27c-.02,.98-.04,1.97-.05,2.98c-.02,.49-.02,.49-.08,2.95c.2,2.82,.75,4.41,2.2,6.8c.33,0,.66,0,1,0c-.01,.47-.01,.47-.04,2.84c-.08,10.22,.24,20.39,.77,30.6c.49,10.23,.49,10.23-.73,14.56c-.66,.33-1.32,.66-2,1c0,2.31,0,4.62,0,7c-.66,.33-1.32,.66-2,1c-2.65,5.78-4.44,11.67-5,18c-.66,0-1.32,0-2,0c-.16,1.07-.33,2.15-.5,3.25c-1.55,6.34-5.57,11.64-9.5,16.75c-.66,.33-1.32,.66-2,1c-.33,.99-.66,1.98-1,3c-.99,.33-1.98,.66-3,1c-.12,.62-.25,1.24-.37,1.88c-.63,2.12-.63,2.12-2.9,3.48c-2.88,1.73-4.71,3.55-6.98,6.02c-5.27,5.42-11.11,9.87-17.21,14.33c-.72,.53-1.43,1.06-2.17,1.6c-.33,.24-.33,.24-1.97,1.43c-.46,.41-.92,.83-1.4,1.26c0,.66,0,1.32,0,2c-.76,.1-1.53,.21-2.31,.31c-2.93,.75-3.71,1.52-5.69,3.69c-.99,.33-1.98,.66-3,1c-1.66,.83-3.33,1.67-4.98,2.53c-39.05,20.08-82.62,30.06-126.37,32.12c-.44,.05-.44,.05-2.65,.35c-.33,.66-.66,1.32-1,2c-73.89,1.36-166.25,1.92-225-50c-2.72-2.63-5.37-5.32-7.92-8.12c-3.16-3.36-5.76-4.49-10.08-5.88c-1.25-3.5-1.25-3.5-2-7c-1.23-1.23-2.48-2.42-3.77-3.57c-3.15-3.44-5.44-7.27-7.85-11.24c-.49-.78-.98-1.57-1.49-2.37C28.1,365.25,26.24,361.2,25,356c-1-2-1-2-3-5c-2.29-5.42-3.37-10.13-3-16c-.66,0-1.32,0-2,0c-1.25-4.81-1.13-9.52-1.1-14.46c0-.9,.01-1.8,.01-2.73c0-2.88,.01-5.75,.03-8.62c0-1.95,.01-3.91,.01-5.86c.01-4.78,.03-9.55,.05-14.33c.66-.33,1.32-.66,2-1c-.08-1.22-.16-2.43-.25-3.69c-.04-6.45,2.16-12.28,4.25-18.31c.66,0,1.32,0,2,0c.12-.68,.24-1.35,.37-2.05c.16-.89,.33-1.78,.51-2.7c.16-.88,.32-1.76,.49-2.67c.6-2.45,1.41-4.39,2.63-6.58c-.99-.33-1.98-.66-3-1c-1.67-1.33-3.33-2.67-5-4c-.99-.33-1.98-.66-3-1c-.67-1.33-1.33-2.67-2-4c-.99-.33-1.98-.66-3-1c-.33-.99-.66-1.98-1-3c-.58-.52-1.15-1.03-1.75-1.56c-2.87-3.11-4.35-6.48-6.1-10.3C2,224,2,224,0,223c-.82-28.8-.82-28.8,4-43c.14-.45,.14-.45,.86-2.75c.48-1.49,.98-2.97,1.5-4.44c.57-1.62,1.05-3.28,1.52-4.93C9.5,163.72,11.89,159.05,16,157c.29-.64,.58-1.28,.88-1.94C18,153,18,153,20,152.06c2.76-1.47,2.91-3.19,4-6.06c3.21-3.85,3.21-3.85,5.94-4.37c4-1.22,6.35-5.59,8.62-8.94C40,131,40,131,41.88,130.63c3.52-1.04,5-3.77,7.12-6.63c.33-.99,.66-1.98,1-3c.66-.33,1.32-.66,2-1c.33-.99,.66-1.98,1-3c.66-.33,1.32-.66,2-1c.31-.8,.62-1.61,.94-2.44C57,111,57,111,60,109c.68-1.33,1.35-2.66,2-4c.66-.33,1.32-.66,2-1c.33-.99,.66-1.98,1-3c.99-.33,1.98-.66,3-1c.1-.6,.21-1.2,.31-1.81C69.37,94.81,72.12,93.9,75,92c1.01-1.66,2.01-3.33,3-5c.28-.06,.28-.06,1.7-.38c3.29-.89,5.71-2.89,8.43-4.87c26.64-18.81,58.74-18.85,86.57-2.12Zm168.8,20.59c-2.08,2.47-3.8,5.03-5.5,7.78c-1.55,1.55-2.96,1.28-5.12,1.38c-6.75-.06-12.69-2.49-18.96-4.71C286.55,95.18,256.43,94.88,228,99c-1.12,.12-2.24,.24-3.39,.37c-13.79,1.6-27.6,5.39-40.66,10.04c-3.13,.95-5.73,1.03-8.95,.59c-2.68-1.99-4.03-4.05-5.81-6.87C163.12,94.46,154.29,89.86,144,88c-11.64-1.08-23.19-.76-34,4c-1.06,.46-2.12,.93-3.22,1.4C97.76,97.79,90.95,103.91,84,111c-.74,.75-1.48,1.51-2.24,2.28c-3.92,4.22-7.23,8.76-10.51,13.47c-7.54,10.8-16.62,19.84-26.36,28.64c-12.53,11.33-24.91,25.34-26.13,43.08c-.33,12,1.28,22.12,9.33,31.57c8.34,8.58,19.28,14.01,31.29,14.27c15.05-.15,26.88-5.69,37.75-15.87c12.96-13.68,19.09-30.38,24.6-48.08c.24-.77,.48-1.54,.73-2.33c1.19-3.84,2.36-7.69,3.51-11.54c6.21-20.67,6.21-20.67,12.03-26.49c3-.31,3-.31,6,0c2,3,2,3,1.88,6.19c-.82,3.54-2.08,6.1-3.77,9.27c-3.52,8.06-4.9,17.31-6.48,25.92c-4.68,23.79-15.31,48.68-35.22,63.56C93.97,249.23,87.27,252.38,80,255c-.84,.31-1.67,.62-2.54,.94C68.58,258.79,59.25,258.72,50,259c-12.85,23.32-16.91,50.11-10,76c.26,.99,.51,1.97,.77,2.99C46.47,357.28,58.94,373.13,72,388c.29,.33,.29,.33,1.73,1.99c33.58,36.08,96.34,45.91,143.35,47.91c11.03,.37,22.07,.39,33.11,.41c1.4,0,2.8,0,4.2,.01c24.38,.07,48.73-.52,72.8-4.69c1.32-.23,2.65-.45,3.98-.68c8.28-1.43,16.48-2.95,24.56-5.29c2.86-.83,5.72-1.61,8.59-2.41c28.87-8.11,54.85-20.28,76.68-41.25c.85-.8,1.71-1.61,2.59-2.43c5.62-5.42,10.24-10.98,14.41-17.57c.59-.89,1.17-1.78,1.77-2.7c3.56-5.68,6.26-11.46,8.54-17.74c.12-.32,.12-.32,.74-1.98c8.16-23.76,6.67-54.22-4.3-76.83c-2.43-4.43-2.43-4.43-3.75-5.75c-1.92-.11-3.85-.22-5.78-.29C434.9,257.99,416.7,252.72,402,238c-15.95-17.86-23.43-41.81-27.78-64.87c-1.71-8.76-4.21-17.12-8.22-25.13c-.19-3-.19-3,0-6c2-2,2-2,5.63-2.12c.55,.02,.55,.02,3.37,.12c5.51,10.79,9.34,21.81,12.7,33.42c15.03,51.71,15.03,51.71,38.3,64.58c12.6,6.32,24.17,8.08,38.05,4.1c10.53-3.92,19.34-10.02,24.51-20.17c5.27-12.19,5.64-22.29,1.44-34.93c-3.42-8.4-8.06-15.2-14-22c-.68-.81-1.36-1.62-2.05-2.46c-4.14-4.8-8.51-8.96-13.39-12.98c-8.91-7.37-15.95-15.51-22.5-25C426.31,107.57,411.88,92.73,391,88c-17.16-2.86-35.08-.95-47.5,12.22ZM508,182c1,2,1,2,1,2Zm1,2c1,4,1,4,1,4Zm1,4c1,4,1,4,1,4Zm0,25c1,4,1,4,1,4ZM1,216c1,3,1,3,1,3Zm508,1c1,3,1,3,1,3ZM2,220c1,2,1,2,1,2Zm1,2c1,2,1,2,1,2Zm1,3c1,2,1,2,1,2Zm479,30c1,2,1,2,1,2ZM27,256c1,2,1,2,1,2Zm-5,13c1,2,1,2,1,2Zm467,1c1,2,1,2,1,2Zm1,3c1,3,1,3,1,3ZM20,275c1,3,1,3,1,3Zm-1,4c1,3,1,3,1,3Zm475,40c0,2.31,0,4.62,0,7c.33,0,.66,0,1,0c0-2.31,0-4.62,0-7c-.33,0-.66,0-1,0ZM17,323c0,1.98,0,3.96,0,6c.33,0,.66,0,1,0c0-1.98,0-3.96,0-6c-.33,0-.66,0-1,0Zm3,17c1,2,1,2,1,2Zm1,3c1,2,1,2,1,2Zm1,3c1,2,1,2,1,2Zm1,3c1,2,1,2,1,2Z" fill="#181818"/>
<path d="M255.81,277.63c.95-.03,1.9-.05,2.87-.08c7.16-.03,13.42,1.18,19.03,5.89C279,285,279,285,279.56,288.19c-.87,5.89-3.97,9.67-8.52,13.43c-1.64,1.18-3.34,2.29-5.04,3.38c.4,5.86,1.2,9.28,5,14c3.14,1.57,5.54,1.35,9,1c3.17-2.45,4.78-4.55,6.56-8.12c1.54-3.08,2.34-4.41,5.44-5.88c3.82,.07,6.21,.49,9.44,2.56c2.23,3.48,2.26,6.49,1.56,10.44c-2.27,7.17-6.79,11.65-13.25,15.26c-7.26,3.33-14.96,4.46-22.59,1.72c-3.37-1.64-6.36-3.25-9.13-5.77c-.67-.4-1.34-.8-2.03-1.21c-3.84,.98-7.07,3.17-10.5,5.13c-7.44,3.72-14.38,4.52-22.37,1.94c-6.86-3.12-10.38-6.81-13.94-13.44c-1.45-4.43-1.79-7-1.19-11.63c2.06-3,2.06-3,5-5c3.5-.62,3.5-.62,7,0c4.59,3.37,5.67,6.6,7,12c2,2,2,2,5.31,2.31c3.94-.33,5.64-.86,8.69-3.31c2.35-2.91,2.97-4.78,3.5-8.5c-.64-4.51-2.1-5.54-5.5-8.5c-3.5-3.32-6.36-6.14-6.75-11.12c.75-3.88,.75-3.88,3.38-6.75c6.64-4.19,12.52-4.49,20.18-4.5Z" fill="#191919"/>
<path d="M190.38,254.56c3.98,2.36,6.85,5.11,8.62,9.44c.74,4.53,.59,8.46-1.06,12.75c-4.64,5.38-9.34,9.53-16.55,10.66c-6.2,.21-10.07-.5-14.8-4.64c-4.14-4.6-5.17-9.63-4.94-15.63c.99-6.05,5.71-9.69,10.35-13.14c5.91-1.97,12.63-2,18.38,.56Z" fill="#181819"/>
<path d="M338.38,254.06c4.31,3.19,7.91,6.8,9.62,11.94c.37,5.62,.22,9.18-3,14c-4.82,4.71-8.82,6.72-15.5,7.31c-5.79-.51-9.06-2.58-12.81-6.87c-3.71-4.53-4.09-7.71-4.04-13.54c.53-4.43,2.28-7.69,5.35-10.9c6.07-4.47,13.37-4.14,20.38-1.94Z" fill="#19191A"/>
<path d="M240,74c13,0,26,0,39,0c0,.33,0,.66,0,1c-13,0-26,0-39,0c0-.33,0-.66,0-1Z" fill="#171717"/>
<path d="M230,458c10,0,20,0,30,0c0,.33,0,.66,0,1c-10,0-20,0-30,0c0-.33,0-.66,0-1Z" fill="#171717"/>
<path d="M15,296c.33,0,.66,0,1,0c0,8.67,0,17.33,0,26c-.33,0-.66,0-1,0c0-8.67,0-17.33,0-26Z" fill="#171717"/>
<path d="M208,457c7,0,14,0,21,0c0,.33,0,.66,0,1c-7,0-14,0-21,0c0-.33,0-.66,0-1Z" fill="#171717"/>
<path d="M70,414c1.16,.66,1.16,.66,7,4c0,.33,0,.66,0,1c-1.65,0-3.3,0-5,0c0-.66,0-1.32,0-2c-.66,0-1.32,0-2,0c0-.99,0-1.98,0-3Z" fill="#171717"/>
<path d="M496,302c.33,0,.66,0,1,0c0,5.33,0,10.67,0,16c-.33,0-.66,0-1,0c0-5.33,0-10.67,0-16Z" fill="#171717"/>
<path d="M290,456c4.67,0,9.33,0,14,0c0,.33,0,.66,0,1c-4.67,0-9.33,0-14,0c0-.33,0-.66,0-1Z" fill="#171717"/>
<path d="M196,456c4,0,8,0,12,0c0,.33,0,.66,0,1c-4,0-8,0-12,0c0-.33,0-.66,0-1Z" fill="#171717"/>
<path d="M304,455c3.3,0,6.6,0,10,0c0,.33,0,.66,0,1c-3.3,0-6.6,0-10,0c0-.33,0-.66,0-1Z" fill="#171717"/>
<path d="M100,433c4.75,.75,4.75,.75,7,3c-4.75-.75-4.75-.75-7-3Z" fill="#171717"/>
<path d="M230,75c3.3,0,6.6,0,10,0c0,.33,0,.66,0,1c-3.3,0-6.6,0-10,0c0-.33,0-.66,0-1Z" fill="#171717"/>
<path d="M382,66c3.3,0,6.6,0,10,0c0,.33,0,.66,0,1c-3.3,0-6.6,0-10,0c0-.33,0-.66,0-1Z" fill="#171717"/>
<path d="M120,66c3.3,0,6.6,0,10,0c0,.33,0,.66,0,1c-3.3,0-6.6,0-10,0c0-.33,0-.66,0-1Z" fill="#171717"/>
<path d="M187,455c2.97,0,5.94,0,9,0c0,.33,0,.66,0,1c-2.97,0-5.94,0-9,0c0-.33,0-.66,0-1Z" fill="#171717"/>
<path d="M495,291c.33,0,.66,0,1,0c0,2.97,0,5.94,0,9c-.33,0-.66,0-1,0c0-2.97,0-5.94,0-9Z" fill="#171717"/>
<path d="M365,66c2.97,0,5.94,0,9,0c0,.33,0,.66,0,1c-2.97,0-5.94,0-9,0c0-.33,0-.66,0-1Z" fill="#171717"/>
<path d="M314,454c2.64,0,5.28,0,8,0c0,.33,0,.66,0,1c-2.64,0-5.28,0-8,0c0-.33,0-.66,0-1Z" fill="#171717"/>
<path d="M1,183c1,3,1,3,.06,5.19c-.17,.3-.17,.3-1.06,1.81c.33-2.31,.66-4.62,1-7Z" fill="#171717"/>
<path d="M138,66c2.64,0,5.28,0,8,0c0,.33,0,.66,0,1c-2.64,0-5.28,0-8,0c0-.33,0-.66,0-1Z" fill="#171717"/>
<path d="M180,454c2.31,0,4.62,0,7,0c0,.33,0,.66,0,1c-2.31,0-4.62,0-7,0c0-.33,0-.66,0-1Z" fill="#171717"/>
<path d="M328,452c2.31,0,4.62,0,7,0c0,.33,0,.66,0,1c-2.31,0-4.62,0-7,0c0-.33,0-.66,0-1Z" fill="#171717"/>
<path d="M280,75c2.31,0,4.62,0,7,0c0,.33,0,.66,0,1c-2.31,0-4.62,0-7,0c0-.33,0-.66,0-1Z" fill="#171717"/>
<path d="M374,65c2.31,0,4.62,0,7,0c0,.33,0,.66,0,1c-2.31,0-4.62,0-7,0c0-.33,0-.66,0-1Z" fill="#171717"/>
<path d="M322,453c1.98,0,3.96,0,6,0c0,.33,0,.66,0,1c-1.98,0-3.96,0-6,0c0-.33,0-.66,0-1Z" fill="#171717"/>
<path d="M174,453c1.98,0,3.96,0,6,0c0,.33,0,.66,0,1c-1.98,0-3.96,0-6,0c0-.33,0-.66,0-1Z" fill="#171717"/>
<path d="M168,452c1.98,0,3.96,0,6,0c0,.33,0,.66,0,1c-1.98,0-3.96,0-6,0c0-.33,0-.66,0-1Z" fill="#171717"/>
<path d="M218,77c1.98,0,3.96,0,6,0c0,.33,0,.66,0,1c-1.98,0-3.96,0-6,0c0-.33,0-.66,0-1Z" fill="#171717"/>
<path d="M287,76c1.98,0,3.96,0,6,0c0,.33,0,.66,0,1c-1.98,0-3.96,0-6,0c0-.33,0-.66,0-1Z" fill="#171717"/>
<path d="M224,76c1.98,0,3.96,0,6,0c0,.33,0,.66,0,1c-1.98,0-3.96,0-6,0c0-.33,0-.66,0-1Z" fill="#171717"/>
<path d="M131,65c1.98,0,3.96,0,6,0c0,.33,0,.66,0,1c-1.98,0-3.96,0-6,0c0-.33,0-.66,0-1Z" fill="#171717"/>
<path d="M335,451c1.65,0,3.3,0,5,0c0,.33,0,.66,0,1c-1.65,0-3.3,0-5,0c0-.33,0-.66,0-1Z" fill="#171717"/>
<path d="M162,451c1.65,0,3.3,0,5,0c0,.33,0,.66,0,1c-1.65,0-3.3,0-5,0c0-.33,0-.66,0-1Z" fill="#171717"/>
<path d="M340,450c1.65,0,3.3,0,5,0c0,.33,0,.66,0,1c-1.65,0-3.3,0-5,0c0-.33,0-.66,0-1Z" fill="#171717"/>
<path d="M157,450c1.65,0,3.3,0,5,0c0,.33,0,.66,0,1c-1.65,0-3.3,0-5,0c0-.33,0-.66,0-1Z" fill="#171717"/>
<path d="M345,449c1.65,0,3.3,0,5,0c0,.33,0,.66,0,1c-1.65,0-3.3,0-5,0c0-.33,0-.66,0-1Z" fill="#171717"/>
<path d="M152,449c1.65,0,3.3,0,5,0c0,.33,0,.66,0,1c-1.65,0-3.3,0-5,0c0-.33,0-.66,0-1Z" fill="#171717"/>
<path d="M350,448c1.65,0,3.3,0,5,0c0,.33,0,.66,0,1c-1.65,0-3.3,0-5,0c0-.33,0-.66,0-1Z" fill="#171717"/>
<path d="M147,448c1.65,0,3.3,0,5,0c0,.33,0,.66,0,1c-1.65,0-3.3,0-5,0c0-.33,0-.66,0-1Z" fill="#171717"/>
<path d="M17,283c.33,0,.66,0,1,0c0,1.65,0,3.3,0,5c-.33,0-.66,0-1,0c0-1.65,0-3.3,0-5Z" fill="#171717"/>
<path d="M324,85c1.65,0,3.3,0,5,0c0,.33,0,.66,0,1c-1.65,0-3.3,0-5,0c0-.33,0-.66,0-1Z" fill="#171717"/>
<path d="M303,79c1.65,0,3.3,0,5,0c0,.33,0,.66,0,1c-1.65,0-3.3,0-5,0c0-.33,0-.66,0-1Z" fill="#171717"/>
<path d="M294,77c1.65,0,3.3,0,5,0c0,.33,0,.66,0,1c-1.65,0-3.3,0-5,0c0-.33,0-.66,0-1Z" fill="#171717"/>
<path d="M392,67c1.65,0,3.3,0,5,0c0,.33,0,.66,0,1c-1.65,0-3.3,0-5,0c0-.33,0-.66,0-1Z" fill="#171717"/>
<path d="M146,67c1.65,0,3.3,0,5,0c0,.33,0,.66,0,1c-1.65,0-3.3,0-5,0c0-.33,0-.66,0-1Z" fill="#171717"/>
<path d="M355,447c4,1,4,1,4,1Z" fill="#171717"/>
<path d="M142,447c4,1,4,1,4,1Z" fill="#171717"/>
<path d="M359,446c4,1,4,1,4,1Z" fill="#171717"/>
<path d="M138,446c4,1,4,1,4,1Z" fill="#171717"/>
<path d="M363,445c4,1,4,1,4,1Z" fill="#171717"/>
<path d="M134,445c4,1,4,1,4,1Z" fill="#171717"/>
<path d="M370,443c4,1,4,1,4,1Z" fill="#171717"/>
<path d="M123,442c4,1,4,1,4,1Z" fill="#171717"/>
<path d="M436,413c.66,.33,1.32,.66,2,1c-.99,0-1.98,0-3,0c.33-.33,.66-.66,1-1Z" fill="#171717"/>
<path d="M18,335c1,4,1,4,1,4Z" fill="#171717"/>
<path d="M493,333c1,4,1,4,1,4Z" fill="#171717"/>
<path d="M493,280c1,4,1,4,1,4Z" fill="#171717"/>
<path d="M183,86c4,1,4,1,4,1Z" fill="#171717"/>
<path d="M190,84c4,1,4,1,4,1Z" fill="#171717"/>
<path d="M197,82c4,1,4,1,4,1Z" fill="#171717"/>
<path d="M311,81c4,1,4,1,4,1Z" fill="#171717"/>
<path d="M201,81c4,1,4,1,4,1Z" fill="#171717"/>
<path d="M205,80c4,1,4,1,4,1Z" fill="#171717"/>
<path d="M209,79c4,1,4,1,4,1Z" fill="#171717"/>
<path d="M299,78c4,1,4,1,4,1Z" fill="#171717"/>
<path d="M214,78c4,1,4,1,4,1Z" fill="#171717"/>
<path d="M154,69c4,1,4,1,4,1Z" fill="#171717"/>
<path d="M108,69c4,1,4,1,4,1Z" fill="#171717"/>
<path d="M361,67c4,1,4,1,4,1Z" fill="#171717"/>
<path d="M116,67c4,1,4,1,4,1Z" fill="#171717"/>
<path d="M367,444c3,1,3,1,3,1Z" fill="#171717"/>
<path d="M131,444c3,1,3,1,3,1Z" fill="#171717"/>
<path d="M127,443c3,1,3,1,3,1Z" fill="#171717"/>
<path d="M374,442c3,1,3,1,3,1Z" fill="#171717"/>
<path d="M377,441c3,1,3,1,3,1Z" fill="#171717"/>
<path d="M120,441c3,1,3,1,3,1Z" fill="#171717"/>
<path d="M380,440c3,1,3,1,3,1Z" fill="#171717"/>
<path d="M117,440c3,1,3,1,3,1Z" fill="#171717"/>
<path d="M383,439c3,1,3,1,3,1Z" fill="#171717"/>
<path d="M386,438c3,1,3,1,3,1Z" fill="#171717"/>
<path d="M389,437c3,1,3,1,3,1Z" fill="#171717"/>
<path d="M109,437c3,1,3,1,3,1Z" fill="#171717"/>
<path d="M394,435c3,1,3,1,3,1Z" fill="#171717"/>
<path d="M399,433c3,1,3,1,3,1Z" fill="#171717"/>
<path d="M53,398c.66,.66,1.32,1.32,2,2c-.66,0-1.32,0-2,0c0-.66,0-1.32,0-2Z" fill="#171717"/>
<path d="M187,85c3,1,3,1,3,1Z" fill="#171717"/>
<path d="M321,84c3,1,3,1,3,1Z" fill="#171717"/>
<path d="M318,83c3,1,3,1,3,1Z" fill="#171717"/>
<path d="M194,83c3,1,3,1,3,1Z" fill="#171717"/>
<path d="M315,82c3,1,3,1,3,1Z" fill="#171717"/>
<path d="M308,80c3,1,3,1,3,1Z" fill="#171717"/>
<path d="M404,70c3,1,3,1,3,1Z" fill="#171717"/>
<path d="M351,70c3,1,3,1,3,1Z" fill="#171717"/>
<path d="M105,70c3,1,3,1,3,1Z" fill="#171717"/>
<path d="M401,69c3,1,3,1,3,1Z" fill="#171717"/>
<path d="M354,69c3,1,3,1,3,1Z" fill="#171717"/>
<path d="M397,68c3,1,3,1,3,1Z" fill="#171717"/>
<path d="M357,68c3,1,3,1,3,1Z" fill="#171717"/>
<path d="M151,68c3,1,3,1,3,1Z" fill="#171717"/>
<path d="M112,68c3,1,3,1,3,1Z" fill="#171717"/>
<path d="M115,439c2,1,2,1,2,1Z" fill="#171717"/>
<path d="M112,438c2,1,2,1,2,1Z" fill="#171717"/>
<path d="M392,436c2,1,2,1,2,1Z" fill="#171717"/>
<path d="M107,436c2,1,2,1,2,1Z" fill="#171717"/>
<path d="M397,434c2,1,2,1,2,1Z" fill="#171717"/>
<path d="M402,432c2,1,2,1,2,1Z" fill="#171717"/>
<path d="M98,432c2,1,2,1,2,1Z" fill="#171717"/>
<path d="M404,431c2,1,2,1,2,1Z" fill="#171717"/>
<path d="M96,431c2,1,2,1,2,1Z" fill="#171717"/>
<path d="M406,430c2,1,2,1,2,1Z" fill="#171717"/>
<path d="M94,430c2,1,2,1,2,1Z" fill="#171717"/>
<path d="M408,429c2,1,2,1,2,1Z" fill="#171717"/>
<path d="M92,429c2,1,2,1,2,1Z" fill="#171717"/>
<path d="M410,428c2,1,2,1,2,1Z" fill="#171717"/>
<path d="M89,427c2,1,2,1,2,1Z" fill="#171717"/>
<path d="M414,426c2,1,2,1,2,1Z" fill="#171717"/>
<path d="M87,426c2,1,2,1,2,1Z" fill="#171717"/>
<path d="M416,425c2,1,2,1,2,1Z" fill="#171717"/>
<path d="M418,424c2,1,2,1,2,1Z" fill="#171717"/>
<path d="M420,423c2,1,2,1,2,1Z" fill="#171717"/>
<path d="M82,423c2,1,2,1,2,1Z" fill="#171717"/>
<path d="M422,422c2,1,2,1,2,1Z" fill="#171717"/>
<path d="M79,421c2,1,2,1,2,1Z" fill="#171717"/>
<path d="M427,419c2,1,2,1,2,1Z" fill="#171717"/>
<path d="M430,417c2,1,2,1,2,1Z" fill="#171717"/>
<path d="M66,411c2,1,2,1,2,1Z" fill="#171717"/>
<path d="M440,410c2,1,2,1,2,1Z" fill="#171717"/>
<path d="M444,407c2,1,2,1,2,1Z" fill="#171717"/>
<path d="M450,402c2,1,2,1,2,1Z" fill="#171717"/>
<path d="M23,250c2,1,2,1,2,1Z" fill="#171717"/>
<path d="M489,248c2,1,2,1,2,1Z" fill="#171717"/>
<path d="M427,83c2,1,2,1,2,1Z" fill="#171717"/>
<path d="M83,83c2,1,2,1,2,1Z" fill="#171717"/>
<path d="M331,82c2,1,2,1,2,1Z" fill="#171717"/>
<path d="M423,80c2,1,2,1,2,1Z" fill="#171717"/>
<path d="M87,80c2,1,2,1,2,1Z" fill="#171717"/>
<path d="M420,78c2,1,2,1,2,1Z" fill="#171717"/>
<path d="M336,78c2,1,2,1,2,1Z" fill="#171717"/>
<path d="M173,78c2,1,2,1,2,1Z" fill="#171717"/>
<path d="M90,78c2,1,2,1,2,1Z" fill="#171717"/>
<path d="M417,76c2,1,2,1,2,1Z" fill="#171717"/>
<path d="M339,76c2,1,2,1,2,1Z" fill="#171717"/>
<path d="M170,76c2,1,2,1,2,1Z" fill="#171717"/>
<path d="M93,76c2,1,2,1,2,1Z" fill="#171717"/>
<path d="M415,75c2,1,2,1,2,1Z" fill="#171717"/>
<path d="M341,75c2,1,2,1,2,1Z" fill="#171717"/>
<path d="M95,75c2,1,2,1,2,1Z" fill="#171717"/>
<path d="M413,74c2,1,2,1,2,1Z" fill="#171717"/>
<path d="M343,74c2,1,2,1,2,1Z" fill="#171717"/>
<path d="M167,74c2,1,2,1,2,1Z" fill="#171717"/>
<path d="M411,73c2,1,2,1,2,1Z" fill="#171717"/>
<path d="M345,73c2,1,2,1,2,1Z" fill="#171717"/>
<path d="M165,73c2,1,2,1,2,1Z" fill="#171717"/>
<path d="M409,72c2,1,2,1,2,1Z" fill="#171717"/>
<path d="M347,72c2,1,2,1,2,1Z" fill="#171717"/>
<path d="M163,72c2,1,2,1,2,1Z" fill="#171717"/>
<path d="M101,72c2,1,2,1,2,1Z" fill="#171717"/>
<path d="M407,71c2,1,2,1,2,1Z" fill="#171717"/>
<path d="M349,71c2,1,2,1,2,1Z" fill="#171717"/>
<path d="M160,71c2,1,2,1,2,1Z" fill="#171717"/>
<path d="M103,71c2,1,2,1,2,1Z" fill="#171717"/>
<path d="M158,70c2,1,2,1,2,1Z" fill="#171717"/>
</svg>
