<?xml version="1.0" encoding="UTF-8"?>
<svg xmlns="http://www.w3.org/2000/svg" viewBox="0 0 1254 1254">
  <g transform="translate(0,1254) scale(0.1,-0.1)" fill="#000000" stroke="none">
    <path d="M9905 11344 c-163 -16 -274 -45 -690 -179 -465 -149 -1075 -343
-1200 -381 -49 -14 -223 -68 -385 -120 -365 -115 -794 -248 -1045 -324 -179
-54 -728 -223 -1005 -310 -69 -21 -201 -62 -295 -90 -288 -87 -472 -144 -965
-296 -261 -80 -502 -154 -535 -164 -141 -42 -951 -292 -1061 -328 -400 -132
-762 -318 -1010 -519 -399 -323 -617 -749 -575 -1127 38 -341 239 -680 559
-945 207 -171 392 -283 932 -566 124 -65 308 -163 410 -218 102 -55 291 -157
420 -227 1110 -601 1367 -764 1561 -990 104 -122 111 -134 417 -740 126 -250
276 -545 334 -655 58 -110 158 -306 223 -435 337 -671 477 -902 700 -1154 141
-160 360 -300 533 -342 103 -24 269 -15 370 20 413 144 753 564 1125 1391 89
197 136 307 324 760 114 274 614 1532 785 1975 33 85 70 182 83 215 13 33 63
161 111 285 48 124 116 299 151 390 36 91 86 221 113 290 115 300 175 454 225
580 49 123 142 362 322 825 73 187 225 572 369 936 229 579 285 801 271 1084
-19 374 -169 710 -433 967 -89 86 -130 118 -231 179 -158 95 -337 164 -510
194 -87 16 -322 27 -398 19z"/>
  </g>
</svg>
