<svg id="Layer_1" enable-background="new 0 0 512 512" height="512" viewBox="0 0 512 512" width="512" xmlns="http://www.w3.org/2000/svg"><path d="m397 256v48.389c0 31.223-25.402 56.625-56.625 56.625h-170.748l8.673 8.673c6.249 6.248 6.249 16.379 0 22.627-3.124 3.124-7.219 4.687-11.313 4.687s-8.189-1.563-11.313-4.687l-35.986-35.986c-6.249-6.248-6.249-16.379 0-22.627l35.986-35.987c6.248-6.248 16.379-6.25 22.627 0 6.249 6.248 6.249 16.379 0 22.627l-8.673 8.674h170.748c13.578 0 24.625-11.047 24.625-24.625v-48.39c0-8.836 7.164-16 16-16s15.999 7.164 15.999 16zm-266 16c8.836 0 16-7.163 16-16v-48.388c0-13.578 11.047-24.625 24.625-24.625h170.747l-8.673 8.673c-6.249 6.248-6.249 16.379 0 22.627 3.124 3.125 7.219 4.687 11.313 4.687s8.189-1.562 11.313-4.687l35.986-35.986c6.249-6.248 6.249-16.379 0-22.627l-35.986-35.987c-6.249-6.25-16.38-6.248-22.627 0-6.249 6.249-6.249 16.379 0 22.627l8.673 8.673h-170.746c-31.223 0-56.625 25.402-56.625 56.625v48.388c0 8.837 7.164 16 16 16zm381-16c0 141.159-114.841 256-256 256s-256-114.841-256-256 114.841-256 256-256 256 114.841 256 256zm-32 0c0-123.514-100.486-224-224-224s-224 100.486-224 224 100.486 224 224 224 224-100.486 224-224z"/></svg>